<svg width="237" height="38" viewBox="0 0 237 38" fill="none" xmlns="http://www.w3.org/2000/svg">
<path fill-rule="evenodd" clip-rule="evenodd" d="M11.0636 11.6673C11.0424 11.6671 11.0211 11.667 10.9998 11.667C6.94975 11.667 3.6665 14.9502 3.6665 19.0003C3.6665 23.0504 6.94975 26.3337 10.9998 26.3337C13.7145 26.3337 16.0846 24.8586 17.3525 22.6663C13.3318 22.632 10.083 19.362 10.083 15.3332C10.083 13.9978 10.4399 12.7457 11.0636 11.6673Z" fill="#111E27"/>
<path d="M57 21.75C55.4812 21.75 54.25 20.5188 54.25 19C54.25 17.4812 55.4812 16.25 57 16.25C58.5188 16.25 59.75 17.4812 59.75 19C59.75 20.5188 58.5188 21.75 57 21.75Z" fill="#111E27"/>
<path opacity="0.3" fill-rule="evenodd" clip-rule="evenodd" d="M55.625 10.75C55.625 9.99061 56.2406 9.375 57 9.375C57.7594 9.375 58.375 9.99061 58.375 10.75V12.125C58.375 12.8844 57.7594 13.5 57 13.5C56.2406 13.5 55.625 12.8844 55.625 12.125V10.75ZM60.7223 13.3823C60.1853 13.9192 60.1853 14.7898 60.7223 15.3268C61.2592 15.8638 62.1298 15.8638 62.6668 15.3268L63.6391 14.3545C64.1761 13.8176 64.1761 12.947 63.6391 12.41C63.1021 11.873 62.2315 11.873 61.6945 12.41L60.7223 13.3823ZM63.875 17.625C63.1156 17.625 62.5 18.2406 62.5 19C62.5 19.7594 63.1156 20.375 63.875 20.375H65.25C66.0094 20.375 66.625 19.7594 66.625 19C66.625 18.2406 66.0094 17.625 65.25 17.625H63.875ZM60.7223 22.7221C60.1853 23.259 60.1853 24.1296 60.7223 24.6666L61.6945 25.6389C62.2315 26.1759 63.1021 26.1759 63.6391 25.6389C64.1761 25.1019 64.1761 24.2313 63.6391 23.6943L62.6668 22.7221C62.1298 22.1851 61.2592 22.1851 60.7223 22.7221ZM48.75 17.625C47.9906 17.625 47.375 18.2406 47.375 19C47.375 19.7594 47.9906 20.375 48.75 20.375H50.125C50.8844 20.375 51.5 19.7594 51.5 19C51.5 18.2406 50.8844 17.625 50.125 17.625H48.75ZM57 24.5C56.2406 24.5 55.625 25.1156 55.625 25.875V27.25C55.625 28.0094 56.2406 28.625 57 28.625C57.7594 28.625 58.375 28.0094 58.375 27.25V25.875C58.375 25.1156 57.7594 24.5 57 24.5ZM50.4098 14.3541C49.8728 13.8171 49.8728 12.9465 50.4098 12.4096C50.9467 11.8726 51.8173 11.8726 52.3543 12.4096L53.3266 13.3818C53.8636 13.9188 53.8636 14.7894 53.3266 15.3264C52.7896 15.8634 51.919 15.8634 51.382 15.3264L50.4098 14.3541ZM50.4098 25.6393C49.8728 25.1023 49.8728 24.2317 50.4098 23.6948L51.382 22.7225C51.919 22.1855 52.7896 22.1855 53.3266 22.7225C53.8636 23.2595 53.8636 24.1301 53.3266 24.667L52.3543 25.6393C51.8173 26.1763 50.9467 26.1763 50.4098 25.6393Z" fill="#111E27"/>
<path d="M92.96 24V15.36H94.214V22.818H98.126V24H92.96ZM101.959 24.18C101.311 24.18 100.749 24.034 100.273 23.742C99.7967 23.45 99.4287 23.048 99.1687 22.536C98.9127 22.02 98.7847 21.426 98.7847 20.754C98.7847 20.078 98.9167 19.484 99.1807 18.972C99.4447 18.456 99.8147 18.056 100.291 17.772C100.767 17.484 101.323 17.34 101.959 17.34C102.607 17.34 103.169 17.486 103.645 17.778C104.121 18.07 104.489 18.472 104.749 18.984C105.009 19.496 105.139 20.086 105.139 20.754C105.139 21.43 105.007 22.026 104.743 22.542C104.483 23.054 104.115 23.456 103.639 23.748C103.163 24.036 102.603 24.18 101.959 24.18ZM101.959 22.998C102.579 22.998 103.041 22.79 103.345 22.374C103.653 21.954 103.807 21.414 103.807 20.754C103.807 20.078 103.651 19.538 103.339 19.134C103.031 18.726 102.571 18.522 101.959 18.522C101.539 18.522 101.193 18.618 100.921 18.81C100.649 18.998 100.447 19.26 100.315 19.596C100.183 19.928 100.117 20.314 100.117 20.754C100.117 21.434 100.273 21.978 100.585 22.386C100.897 22.794 101.355 22.998 101.959 22.998ZM109.127 27.06C108.779 27.06 108.441 27.006 108.113 26.898C107.789 26.79 107.493 26.63 107.225 26.418C106.957 26.21 106.735 25.952 106.559 25.644L107.717 25.056C107.857 25.332 108.057 25.534 108.317 25.662C108.577 25.79 108.851 25.854 109.139 25.854C109.495 25.854 109.799 25.79 110.051 25.662C110.303 25.538 110.493 25.35 110.621 25.098C110.753 24.846 110.817 24.534 110.813 24.162V22.35H110.963V17.52H112.073V24.174C112.073 24.346 112.067 24.51 112.055 24.666C112.043 24.822 112.021 24.978 111.989 25.134C111.897 25.57 111.721 25.93 111.461 26.214C111.205 26.498 110.877 26.71 110.477 26.85C110.081 26.99 109.631 27.06 109.127 27.06ZM109.031 24.18C108.427 24.18 107.905 24.03 107.465 23.73C107.029 23.43 106.691 23.022 106.451 22.506C106.215 21.986 106.097 21.402 106.097 20.754C106.097 20.102 106.217 19.52 106.457 19.008C106.697 18.492 107.037 18.086 107.477 17.79C107.921 17.49 108.447 17.34 109.055 17.34C109.667 17.34 110.181 17.49 110.597 17.79C111.017 18.086 111.333 18.492 111.545 19.008C111.761 19.524 111.869 20.106 111.869 20.754C111.869 21.402 111.761 21.984 111.545 22.5C111.329 23.016 111.011 23.426 110.591 23.73C110.171 24.03 109.651 24.18 109.031 24.18ZM109.205 23.046C109.617 23.046 109.953 22.948 110.213 22.752C110.473 22.556 110.663 22.286 110.783 21.942C110.903 21.598 110.963 21.202 110.963 20.754C110.963 20.306 110.901 19.91 110.777 19.566C110.657 19.222 110.469 18.954 110.213 18.762C109.961 18.57 109.639 18.474 109.247 18.474C108.831 18.474 108.489 18.576 108.221 18.78C107.953 18.984 107.753 19.258 107.621 19.602C107.493 19.946 107.429 20.33 107.429 20.754C107.429 21.182 107.493 21.57 107.621 21.918C107.753 22.262 107.949 22.536 108.209 22.74C108.473 22.944 108.805 23.046 109.205 23.046ZM116.28 16.458V15.24H117.534V16.458H116.28ZM116.28 24V17.52H117.534V24H116.28ZM123.884 24V20.814C123.884 20.562 123.862 20.304 123.818 20.04C123.778 19.772 123.698 19.524 123.578 19.296C123.462 19.068 123.296 18.884 123.08 18.744C122.868 18.604 122.59 18.534 122.246 18.534C122.022 18.534 121.81 18.572 121.61 18.648C121.41 18.72 121.234 18.838 121.082 19.002C120.934 19.166 120.816 19.382 120.728 19.65C120.644 19.918 120.602 20.244 120.602 20.628L119.822 20.334C119.822 19.746 119.932 19.228 120.152 18.78C120.372 18.328 120.688 17.976 121.1 17.724C121.512 17.472 122.01 17.346 122.594 17.346C123.042 17.346 123.418 17.418 123.722 17.562C124.026 17.706 124.272 17.896 124.46 18.132C124.652 18.364 124.798 18.618 124.898 18.894C124.998 19.17 125.066 19.44 125.102 19.704C125.138 19.968 125.156 20.2 125.156 20.4V24H123.884ZM119.33 24V17.52H120.452V19.392H120.602V24H119.33Z" fill="#111E27"/>
<rect x="150" width="87" height="38" rx="4" fill="#117ACA"/>
<g filter="url(#filter0_d_682_1509)">
<path d="M176.138 24.18C175.518 24.18 174.958 24.074 174.458 23.862C173.962 23.646 173.552 23.34 173.228 22.944C172.908 22.544 172.7 22.07 172.604 21.522L173.912 21.324C174.044 21.852 174.32 22.264 174.74 22.56C175.16 22.852 175.65 22.998 176.21 22.998C176.558 22.998 176.878 22.944 177.17 22.836C177.462 22.724 177.696 22.566 177.872 22.362C178.052 22.154 178.142 21.906 178.142 21.618C178.142 21.462 178.114 21.324 178.058 21.204C178.006 21.084 177.932 20.98 177.836 20.892C177.744 20.8 177.63 20.722 177.494 20.658C177.362 20.59 177.216 20.532 177.056 20.484L174.842 19.83C174.626 19.766 174.406 19.684 174.182 19.584C173.958 19.48 173.752 19.346 173.564 19.182C173.38 19.014 173.23 18.808 173.114 18.564C172.998 18.316 172.94 18.016 172.94 17.664C172.94 17.132 173.076 16.682 173.348 16.314C173.624 15.942 173.996 15.662 174.464 15.474C174.932 15.282 175.456 15.186 176.036 15.186C176.62 15.194 177.142 15.298 177.602 15.498C178.066 15.698 178.45 15.986 178.754 16.362C179.062 16.734 179.274 17.186 179.39 17.718L178.046 17.946C177.986 17.622 177.858 17.344 177.662 17.112C177.466 16.876 177.226 16.696 176.942 16.572C176.658 16.444 176.35 16.378 176.018 16.374C175.698 16.366 175.404 16.414 175.136 16.518C174.872 16.622 174.66 16.768 174.5 16.956C174.344 17.144 174.266 17.36 174.266 17.604C174.266 17.844 174.336 18.038 174.476 18.186C174.616 18.334 174.788 18.452 174.992 18.54C175.2 18.624 175.406 18.694 175.61 18.75L177.206 19.2C177.406 19.256 177.632 19.332 177.884 19.428C178.14 19.52 178.386 19.65 178.622 19.818C178.862 19.986 179.06 20.21 179.216 20.49C179.372 20.766 179.45 21.114 179.45 21.534C179.45 21.97 179.362 22.354 179.186 22.686C179.01 23.014 178.768 23.29 178.46 23.514C178.156 23.734 177.804 23.9 177.404 24.012C177.004 24.124 176.582 24.18 176.138 24.18ZM180.849 16.458V15.24H182.103V16.458H180.849ZM180.849 24V17.52H182.103V24H180.849ZM186.574 27.06C186.226 27.06 185.888 27.006 185.56 26.898C185.236 26.79 184.94 26.63 184.672 26.418C184.404 26.21 184.182 25.952 184.006 25.644L185.164 25.056C185.304 25.332 185.504 25.534 185.764 25.662C186.024 25.79 186.298 25.854 186.586 25.854C186.942 25.854 187.246 25.79 187.498 25.662C187.75 25.538 187.94 25.35 188.068 25.098C188.2 24.846 188.264 24.534 188.26 24.162V22.35H188.41V17.52H189.52V24.174C189.52 24.346 189.514 24.51 189.502 24.666C189.49 24.822 189.468 24.978 189.436 25.134C189.344 25.57 189.168 25.93 188.908 26.214C188.652 26.498 188.324 26.71 187.924 26.85C187.528 26.99 187.078 27.06 186.574 27.06ZM186.478 24.18C185.874 24.18 185.352 24.03 184.912 23.73C184.476 23.43 184.138 23.022 183.898 22.506C183.662 21.986 183.544 21.402 183.544 20.754C183.544 20.102 183.664 19.52 183.904 19.008C184.144 18.492 184.484 18.086 184.924 17.79C185.368 17.49 185.894 17.34 186.502 17.34C187.114 17.34 187.628 17.49 188.044 17.79C188.464 18.086 188.78 18.492 188.992 19.008C189.208 19.524 189.316 20.106 189.316 20.754C189.316 21.402 189.208 21.984 188.992 22.5C188.776 23.016 188.458 23.426 188.038 23.73C187.618 24.03 187.098 24.18 186.478 24.18ZM186.652 23.046C187.064 23.046 187.4 22.948 187.66 22.752C187.92 22.556 188.11 22.286 188.23 21.942C188.35 21.598 188.41 21.202 188.41 20.754C188.41 20.306 188.348 19.91 188.224 19.566C188.104 19.222 187.916 18.954 187.66 18.762C187.408 18.57 187.086 18.474 186.694 18.474C186.278 18.474 185.936 18.576 185.668 18.78C185.4 18.984 185.2 19.258 185.068 19.602C184.94 19.946 184.876 20.33 184.876 20.754C184.876 21.182 184.94 21.57 185.068 21.918C185.2 22.262 185.396 22.536 185.656 22.74C185.92 22.944 186.252 23.046 186.652 23.046ZM195.753 24V20.814C195.753 20.562 195.731 20.304 195.687 20.04C195.647 19.772 195.567 19.524 195.447 19.296C195.331 19.068 195.165 18.884 194.949 18.744C194.737 18.604 194.459 18.534 194.115 18.534C193.891 18.534 193.679 18.572 193.479 18.648C193.279 18.72 193.103 18.838 192.951 19.002C192.803 19.166 192.685 19.382 192.597 19.65C192.513 19.918 192.471 20.244 192.471 20.628L191.691 20.334C191.691 19.746 191.801 19.228 192.021 18.78C192.241 18.328 192.557 17.976 192.969 17.724C193.381 17.472 193.879 17.346 194.463 17.346C194.911 17.346 195.287 17.418 195.591 17.562C195.895 17.706 196.141 17.896 196.329 18.132C196.521 18.364 196.667 18.618 196.767 18.894C196.867 19.17 196.935 19.44 196.971 19.704C197.007 19.968 197.025 20.2 197.025 20.4V24H195.753ZM191.199 24V17.52H192.321V19.392H192.471V24H191.199ZM203.432 24.174C202.984 24.174 202.608 24.102 202.304 23.958C202 23.814 201.752 23.626 201.56 23.394C201.372 23.158 201.228 22.902 201.128 22.626C201.028 22.35 200.96 22.08 200.924 21.816C200.888 21.552 200.87 21.32 200.87 21.12V17.52H202.142V20.706C202.142 20.958 202.162 21.218 202.202 21.486C202.246 21.75 202.326 21.996 202.442 22.224C202.562 22.452 202.728 22.636 202.94 22.776C203.156 22.916 203.436 22.986 203.78 22.986C204.004 22.986 204.216 22.95 204.416 22.878C204.616 22.802 204.79 22.682 204.938 22.518C205.09 22.354 205.208 22.138 205.292 21.87C205.38 21.602 205.424 21.276 205.424 20.892L206.204 21.186C206.204 21.774 206.094 22.294 205.874 22.746C205.654 23.194 205.338 23.544 204.926 23.796C204.514 24.048 204.016 24.174 203.432 24.174ZM205.574 24V22.128H205.424V17.52H206.69V24H205.574ZM211.415 24.18C210.795 24.18 210.275 24.03 209.855 23.73C209.435 23.426 209.117 23.016 208.901 22.5C208.685 21.984 208.577 21.402 208.577 20.754C208.577 20.106 208.683 19.524 208.895 19.008C209.111 18.492 209.427 18.086 209.843 17.79C210.263 17.49 210.779 17.34 211.391 17.34C211.999 17.34 212.523 17.49 212.963 17.79C213.407 18.086 213.749 18.492 213.989 19.008C214.229 19.52 214.349 20.102 214.349 20.754C214.349 21.402 214.229 21.986 213.989 22.506C213.753 23.022 213.415 23.43 212.975 23.73C212.539 24.03 212.019 24.18 211.415 24.18ZM208.367 26.88V17.52H209.483V22.182H209.627V26.88H208.367ZM211.241 23.046C211.641 23.046 211.971 22.944 212.231 22.74C212.495 22.536 212.691 22.262 212.819 21.918C212.951 21.57 213.017 21.182 213.017 20.754C213.017 20.33 212.951 19.946 212.819 19.602C212.691 19.258 212.493 18.984 212.225 18.78C211.957 18.576 211.615 18.474 211.199 18.474C210.807 18.474 210.483 18.57 210.227 18.762C209.975 18.954 209.787 19.222 209.663 19.566C209.543 19.91 209.483 20.306 209.483 20.754C209.483 21.202 209.543 21.598 209.663 21.942C209.783 22.286 209.973 22.556 210.233 22.752C210.493 22.948 210.829 23.046 211.241 23.046Z" fill="white"/>
</g>
<defs>
<filter id="filter0_d_682_1509" x="168.604" y="15.186" width="49.7452" height="19.874" filterUnits="userSpaceOnUse" color-interpolation-filters="sRGB">
<feFlood flood-opacity="0" result="BackgroundImageFix"/>
<feColorMatrix in="SourceAlpha" type="matrix" values="0 0 0 0 0 0 0 0 0 0 0 0 0 0 0 0 0 0 127 0" result="hardAlpha"/>
<feOffset dy="4"/>
<feGaussianBlur stdDeviation="2"/>
<feComposite in2="hardAlpha" operator="out"/>
<feColorMatrix type="matrix" values="0 0 0 0 0 0 0 0 0 0 0 0 0 0 0 0 0 0 0.25 0"/>
<feBlend mode="normal" in2="BackgroundImageFix" result="effect1_dropShadow_682_1509"/>
<feBlend mode="normal" in="SourceGraphic" in2="effect1_dropShadow_682_1509" result="shape"/>
</filter>
</defs>
</svg>
