<svg width="136" height="38" viewBox="0 0 136 38" fill="none" xmlns="http://www.w3.org/2000/svg">
<path d="M53.2646 8.69604L51.9246 13.3756H54.3344V28.2228H58.9475V8.69604H53.2646Z" fill="#117ACA"/>
<path d="M9.64227 8.30884C3.89444 8.30884 0 12.643 0 18.4615C0 24.2401 3.89523 28.6132 9.64227 28.6132C15.3526 28.6132 19.2474 24.2401 19.2474 18.4615C19.2474 12.643 15.3518 8.30884 9.64227 8.30884ZM9.64227 23.8887C6.61721 23.8887 4.5749 21.5459 4.5749 18.4615C4.5749 15.3376 6.61721 12.9952 9.64227 12.9952C12.6302 12.9952 14.6714 15.3385 14.6714 18.4615C14.6714 21.5461 12.6302 23.8887 9.64227 23.8887Z" fill="#117ACA"/>
<path d="M31.0433 8.30981C25.258 8.30981 21.4385 12.6834 21.4385 18.462V36.0335H25.9761H25.9767V25.9976C27.3757 27.6371 29.3421 28.6135 31.8002 28.6135C36.9807 28.6135 40.6482 24.3581 40.6482 18.462C40.6482 12.527 36.6398 8.30981 31.0433 8.30981ZM31.0433 23.8887C28.1692 23.8887 25.9767 21.5855 25.9767 18.4615C25.9767 15.5718 27.7542 12.9952 31.0433 12.9952C34.2198 12.9952 36.1105 15.5728 36.1105 18.4615C36.1106 21.4291 34.0686 23.8887 31.0433 23.8887Z" fill="#117ACA"/>
<path d="M50.9658 24.1623C48.0949 24.1608 46.6965 22.7554 46.6965 20.4141V13.3854L49.8622 13.3719L51.2138 8.69993H46.6965V4.09204L42.1591 5.85315V20.4141C42.1591 24.8688 44.5391 27.782 48.9001 28.4606L50.9666 24.1623H50.9658Z" fill="#117ACA"/>
<path d="M54.1066 3.15461C54.1066 4.63903 55.1279 5.73215 56.6401 5.73215C58.1525 5.73215 59.1732 4.63903 59.1732 3.15461C59.1732 1.55362 58.1525 0.5 56.6401 0.5C55.1273 0.5 54.1066 1.55475 54.1066 3.15461Z" fill="#DD2230"/>
<path d="M79.8936 18.4615C79.8936 15.1425 81.5201 12.9952 84.0536 12.9952C86.5872 12.9952 88.1749 15.2989 88.1749 18.4615V28.2225H92.6747V18.4615C92.6747 12.4869 89.0821 8.30884 84.0527 8.30884C81.4053 8.30884 79.1368 9.40244 77.5866 11.3159C76.0357 9.4026 73.8052 8.30884 71.1574 8.30884C66.1281 8.30884 62.4982 12.4869 62.4982 18.4615V28.2225H67.0358V18.4615C67.0358 15.1425 68.6618 12.9952 71.1572 12.9952C73.7668 12.9952 75.2795 15.2989 75.2795 18.4615V28.2225H79.8925V18.4615H79.8936Z" fill="#117ACA"/>
<path d="M113.093 18.4616V8.69971H108.593V18.4616C108.593 21.507 106.778 23.8888 104.245 23.8888C101.711 23.8888 99.8957 21.624 99.8957 18.4616V8.69971H95.2827V18.4616C95.2827 24.2796 99.1013 28.6132 104.245 28.6132C109.273 28.6132 113.093 24.279 113.093 18.4616Z" fill="#117ACA"/>
<path d="M131.129 22.7173C131.129 15.1812 120.238 17.9538 120.238 14.2054C120.238 13.0339 121.373 12.1361 122.923 12.1361C125.117 12.1361 126.289 13.3467 126.553 15.0646H131.054C130.599 11.1984 128.028 8.30884 123.113 8.30884C118.424 8.30884 115.663 10.9639 115.663 14.2838C115.663 21.5854 126.516 18.7738 126.516 22.6784C126.516 23.8105 125.533 24.7863 123.718 24.7863C121.373 24.7863 119.861 23.8107 119.596 22.0138H115.096C115.437 25.9579 118.764 28.6132 123.831 28.6132C128.217 28.6132 131.129 26.1135 131.129 22.7173H131.129Z" fill="#117ACA"/>
<path d="M131.545 10.5398C131.545 11.8112 132.436 12.8399 133.773 12.8399C135.121 12.8399 136 11.8112 136 10.5398C136 9.26196 135.121 8.23975 133.773 8.23975C132.436 8.23991 131.545 9.26196 131.545 10.5398ZM133.773 8.71232C134.856 8.71232 135.549 9.57523 135.549 10.5398C135.549 11.4984 134.856 12.3673 133.773 12.3673C132.702 12.3673 131.997 11.4984 131.997 10.5398C131.997 9.57523 132.703 8.71232 133.773 8.71232ZM132.975 11.6771H133.427V10.9552H133.556C133.841 11.0124 134.045 11.2295 134.224 11.6771H134.707C134.577 11.3192 134.428 11.0569 134.255 10.8657C134.502 10.738 134.657 10.4883 134.657 10.1885C134.657 9.75396 134.336 9.41511 133.859 9.41511H132.974V11.6766V11.6771H132.975ZM134.206 10.1885C134.206 10.3737 134.07 10.5018 133.859 10.5018H133.426V9.8566H133.859C134.07 9.85644 134.206 10.0033 134.206 10.1885Z" fill="#117ACA"/>
<path d="M98.2976 32.0237V33.6185C98.6069 33.2779 98.9951 33.1079 99.463 33.1079C99.9296 33.1079 100.314 33.2724 100.616 33.6025C100.914 33.9297 101.063 34.3362 101.063 34.8209C101.063 35.3049 100.914 35.7115 100.616 36.0387C100.314 36.3688 99.9296 36.5332 99.463 36.5332C98.9907 36.5332 98.6033 36.3637 98.2976 36.0227V36.454H97.8556V32.0585L98.2665 31.9978L98.2966 32.0239H98.2976V32.0237ZM99.4191 36.1148C99.7775 36.1148 100.066 35.9905 100.284 35.7428C100.5 35.4933 100.609 35.1867 100.609 34.8209C100.609 34.4552 100.5 34.1478 100.284 33.8986C100.065 33.6506 99.7775 33.5248 99.4191 33.5248C99.0861 33.5248 98.8081 33.6372 98.5853 33.8603C98.3603 34.0861 98.2488 34.4057 98.2488 34.8209C98.2488 35.2354 98.3612 35.5547 98.5853 35.7779C98.8056 36.0029 99.0843 36.1148 99.4191 36.1148Z" fill="#717175"/>
<path d="M103.914 33.1877H104.34L104.365 33.2251L102.864 36.7349C102.745 37.0235 102.623 37.2245 102.502 37.338C102.383 37.4456 102.217 37.5 102.005 37.5C101.818 37.5 101.661 37.4568 101.536 37.3694L101.523 37.3281L101.655 37.0274L101.696 37.0153C101.783 37.0809 101.885 37.1137 101.999 37.1137C102.106 37.1137 102.189 37.0877 102.249 37.0341C102.309 36.9782 102.375 36.8668 102.447 36.697L102.627 36.2853L101.353 33.2253L101.379 33.1879H101.83L102.865 35.736L103.915 33.1879H103.914V33.1877Z" fill="#717175"/>
<path d="M107.698 32.2087H107.902L109.799 36.4154L109.781 36.4536H109.332L108.906 35.493H106.673L106.244 36.4536H105.807L105.789 36.4154L107.698 32.2087ZM107.794 32.9774L106.858 35.0759H108.717L107.794 32.9774Z" fill="#717175"/>
<path d="M112.118 32.0893L112.13 32.1274L111.979 32.4345L111.939 32.45C111.82 32.3762 111.689 32.3391 111.547 32.3391C111.362 32.3391 111.213 32.3997 111.102 32.5218C110.99 32.6438 110.935 32.8224 110.935 33.0562V33.1867H111.926V33.5789H110.935V36.4537H110.491V33.5789H109.959V33.1867H110.491V33.0562C110.491 32.6861 110.594 32.4067 110.803 32.2168C111.01 32.0283 111.257 31.9336 111.541 31.9336C111.776 31.9336 111.968 31.9852 112.119 32.0892H112.118V32.0893Z" fill="#717175"/>
<path d="M114.179 33.2002L114.198 33.2382L114.052 33.5985L114.011 33.6174C113.936 33.5641 113.826 33.5381 113.683 33.5405C113.454 33.5405 113.273 33.6391 113.137 33.8371C112.999 34.0319 112.929 34.2834 112.929 34.5894V36.4525H112.488V33.1866H112.912V33.6234C113.097 33.2794 113.377 33.1074 113.752 33.1074C113.904 33.1074 114.046 33.138 114.178 33.1999H114.179V33.2002Z" fill="#717175"/>
<path d="M115.201 32.4952C115.13 32.5703 115.044 32.6074 114.942 32.6074C114.841 32.6074 114.755 32.5703 114.682 32.4952C114.613 32.4218 114.577 32.3321 114.577 32.2272C114.577 32.1231 114.613 32.0338 114.682 31.9594C114.754 31.8846 114.84 31.8484 114.942 31.8484C115.043 31.8484 115.129 31.8855 115.201 31.9594C115.272 32.0333 115.307 32.1225 115.307 32.2272C115.307 32.3318 115.272 32.4207 115.201 32.4952ZM115.162 36.4542H114.719V33.1881H115.162V36.4542Z" fill="#717175"/>
<path d="M117.673 33.1077C118.07 33.1077 118.386 33.2325 118.621 33.4838C118.854 33.7376 118.97 34.0625 118.97 34.4598V36.4536H118.522V34.5076C118.522 34.2091 118.44 33.9696 118.275 33.7871C118.111 33.6084 117.887 33.5192 117.605 33.5192C117.318 33.5192 117.084 33.6094 116.907 33.7899C116.726 33.9709 116.636 34.2092 116.636 34.5077V36.4537H116.187V33.1876H116.611V33.6183C116.851 33.2775 117.205 33.1077 117.673 33.1077Z" fill="#717175"/>
<path d="M122.1 33.1877H122.516L122.535 33.2251L121.08 36.4538H120.879L119.412 33.2251L119.431 33.1877H119.891L120.975 35.7164L122.1 33.1877Z" fill="#717175"/>
<path d="M125.932 34.9576H123.258C123.282 35.3191 123.41 35.6017 123.64 35.8061C123.866 36.0125 124.138 36.1145 124.452 36.1145C124.648 36.1145 124.851 36.0714 125.061 35.9838C125.266 35.8988 125.427 35.7766 125.546 35.6165H125.582L125.854 35.8532V35.8912C125.706 36.1005 125.503 36.2577 125.246 36.3669C124.988 36.477 124.728 36.5322 124.465 36.5322C124.011 36.5322 123.62 36.3787 123.291 36.069C122.96 35.7632 122.794 35.3508 122.794 34.8321C122.794 34.3386 122.946 33.9287 123.25 33.6009C123.553 33.2713 123.93 33.1064 124.381 33.1064C124.816 33.1064 125.178 33.2533 125.468 33.5466C125.785 33.8661 125.944 34.2684 125.944 34.7554C125.944 34.8371 125.94 34.9035 125.931 34.9564L125.932 34.9576ZM124.382 33.5246C124.085 33.5246 123.836 33.6161 123.635 33.7995C123.43 33.9868 123.309 34.2341 123.27 34.5397H125.491C125.454 34.2635 125.353 34.0367 125.186 33.8601C124.992 33.637 124.725 33.5246 124.383 33.5246H124.382Z" fill="#717175"/>
<path d="M127.548 36.5329C127.043 36.5329 126.644 36.3351 126.353 35.9358V35.8979L126.631 35.6611H126.671C126.756 35.8021 126.874 35.9138 127.027 35.9972C127.181 36.0799 127.345 36.1212 127.517 36.1212C127.721 36.1212 127.886 36.0762 128.014 35.9844C128.142 35.8905 128.206 35.7709 128.206 35.624C128.206 35.4968 128.157 35.3732 128.06 35.2539C128.028 35.2207 127.962 35.1761 127.866 35.1204C127.769 35.0689 127.703 35.0355 127.668 35.0192C127.613 34.9951 127.528 34.9602 127.415 34.9133C127.285 34.8576 127.176 34.8056 127.087 34.7564C127.011 34.7161 126.924 34.6594 126.824 34.5842C126.642 34.4376 126.551 34.245 126.551 34.0041C126.551 33.7316 126.646 33.5148 126.837 33.3529C127.032 33.1894 127.286 33.1077 127.601 33.1077C127.806 33.1077 128.004 33.1574 128.193 33.2569C128.385 33.3609 128.531 33.494 128.632 33.6565V33.6983L128.351 33.9311H128.315C128.233 33.8048 128.127 33.7057 127.994 33.6308C127.861 33.5569 127.724 33.5195 127.582 33.5195C127.409 33.5195 127.269 33.5595 127.163 33.6398C127.057 33.7206 127.003 33.8276 127.003 33.9592C127.003 34.0845 127.051 34.1872 127.145 34.2654C127.236 34.3405 127.388 34.4253 127.599 34.5213C127.967 34.6866 128.206 34.8111 128.313 34.8937C128.545 35.0724 128.662 35.3145 128.662 35.618C128.662 35.8905 128.56 36.1113 128.356 36.2818C128.149 36.4494 127.88 36.5334 127.547 36.5334H127.548V36.5329Z" fill="#717175"/>
<path d="M130.937 35.956L130.977 35.9694L131.129 36.2725L131.116 36.3104C130.935 36.459 130.731 36.5338 130.501 36.5338C130.216 36.5338 129.992 36.4441 129.828 36.266C129.665 36.0873 129.584 35.8347 129.584 35.5067V33.5798H129.053V33.1877H129.584V32.1891L129.995 32.1284L130.025 32.1543V33.1877H131.019V33.5798H130.025V35.5002C130.025 35.9147 130.196 36.1213 130.537 36.1213C130.702 36.1213 130.835 36.067 130.936 35.956H130.937V35.956Z" fill="#717175"/>
</svg>
